<?xml version="1.0" encoding="iso-8859-1"?>
<!-- Generator: Adobe Illustrator 29.8.9, SVG Export Plug-In . SVG Version: 9.03 Build 0)  -->
<svg version="1.1" id="Layer_2" xmlns="http://www.w3.org/2000/svg" xmlns:xlink="http://www.w3.org/1999/xlink" x="0px" y="0px"
	 viewBox="0 0 1327.761 639.78" style="enable-background:new 0 0 1327.761 639.78;" xml:space="preserve">
<path style="fill:#4BA084;" d="M422.979,638.134c-13.65,8.01-30.26-14.89-86.65-32.59c-24.91-7.82-35.44-7.67-52.88-11.68
	c-66.65-15.3-152.9-72.53-177.09-150.26c-9.44-30.31-3.77-45.55-21.47-72.45c-22.16-33.67-45.13-31.19-53.67-59.03
	c-8.49-27.71,11.12-40.44,2.69-80.49c-4.72-22.4-10.86-18.43-16.1-40.25c-11.49-47.8,17.73-67.74,2.68-104.65
	c-6.73-16.51-15.06-18.62-18.78-37.56c-0.57-2.92-6.6-35.36,8.05-45.62c17.05-11.95,60,7.66,83.18,37.57
	c16.78,21.65,16.62,40.21,40.25,56.34c7.14,4.89,16.6,11.34,29.51,12.08c31.92,1.82,42.74-33.74,65.74-32.02
	c21.43,1.59,21.36,33.12,57.69,75c35.19,40.56,54.64,33.33,73.06,67.21c14.73,27.09,14.47,54.11,14.15,87.03
	c-0.44,44.75-10.51,48.21-10.88,97.12c-0.23,29.93-0.15,53.26,12.22,78.63c12.64,25.94,23.95,24.9,38.9,49.64
	C437.299,571.374,441.219,627.434,422.979,638.134z"/>
<path style="fill:#4BA084;" d="M1138.192,73.195c-2.803,1.266-28.884,13.522-38.907,41.59c-10.049,28.142,4.609,48.199-8.05,59.031
	c-10.142,8.679-22.32-1.827-33.54,8.05c-6.914,6.086-8.634,17.921-12.075,41.59c-2.535,17.438-1.12,18.827-4.025,25.491
	c-5.866,13.459-14.469,14.295-25.491,26.832c-18.112,20.604-14.756,40.959-22.807,41.59c-9.712,0.761-11.573-29.092-34.882-41.59
	c-11.324-6.072-25.121-6.658-34.882-4.025c-43.893,11.841-27.478,94.535-76.472,122.087c-36.485,20.517-81.672-5.048-96.596,20.124
	c-4.563,7.696-1.195,11.53-9.391,33.54c-8.247,22.148-13.27,22.596-14.758,34.882c-2.621,21.648,11.652,31.161,5.321,41.546
	c-5.809,9.53-23.924,11.517-36.931,7.799c-18.569-5.308-20.849-20.564-35.471-21.171c-10.508-0.436-23.068,6.872-25.491,16.099
	c-4.823,18.364,30.138,45.741,60.373,57.689c10.537,4.164,58.166,22.987,92.571,0c33.694-22.512,23.309-64.146,50.981-75.13
	c27.106-10.759,43.205,26.751,81.839,26.832c65.202,0.137,147.008-106.439,147.578-177.093c0.071-8.82-0.986-34.177,13.416-42.932
	c10.762-6.542,25.083-0.73,30.857,1.342c62.383,22.386,170.315-17.401,171.727-44.273c0.669-12.735-22.584-22.537-18.783-30.857
	c2.577-5.639,13.424-1.498,29.516-8.05c4.257-1.733,21.781-8.869,29.516-26.832c0.602-1.399,9.65-23.137,0-36.224
	c-15.182-20.589-55.112,9.439-87.205-9.391c-36.419-21.368-21.146-81.244-56.348-93.913
	C1163.254,61.879,1145.49,69.9,1138.192,73.195z"/>
</svg>
